<?xml version="1.0" encoding="UTF-8"?>
<svg id="Capa_1" xmlns="http://www.w3.org/2000/svg" version="1.1" viewBox="0 0 290 47.6">
  <!-- Generator: Adobe Illustrator 29.1.0, SVG Export Plug-In . SVG Version: 2.1.0 Build 142)  -->
  <defs>
    <style>
      .st0 {
        fill: #fbbc05;
      }
    </style>
  </defs>
  <polygon class="st0" points="25 0 30.9 18.2 50 18.2 34.5 29.4 40.5 47.6 25 36.3 9.5 47.6 15.5 29.4 0 18.2 19.1 18.2 25 0"/>
  <polygon class="st0" points="85 0 90.9 18.2 110 18.2 94.5 29.4 100.5 47.6 85 36.3 69.5 47.6 75.5 29.4 60 18.2 79.1 18.2 85 0"/>
  <polygon class="st0" points="145 0 150.9 18.2 170 18.2 154.5 29.4 160.5 47.6 145 36.3 129.5 47.6 135.5 29.4 120 18.2 139.1 18.2 145 0"/>
  <polygon class="st0" points="205 0 210.9 18.2 230 18.2 214.5 29.4 220.5 47.6 205 36.3 189.5 47.6 195.5 29.4 180 18.2 199.1 18.2 205 0"/>
  <polygon class="st0" points="265 0 270.9 18.2 290 18.2 274.5 29.4 280.5 47.6 265 36.3 249.5 47.6 255.5 29.4 240 18.2 259.1 18.2 265 0"/>
</svg>