<?xml version="1.0" encoding="UTF-8"?>
<svg id="Capa_1" xmlns="http://www.w3.org/2000/svg" version="1.1" viewBox="0 0 50 50">
  <!-- Generator: Adobe Illustrator 29.1.0, SVG Export Plug-In . SVG Version: 2.1.0 Build 142)  -->
  <defs>
    <style>
      .st0 {
        fill: #243137;
      }
    </style>
  </defs>
  <path class="st0" d="M50,10.7v5c-.3.6-.5,1.2-1.2,1.4-1.3.4-2.5-.3-2.7-1.7s.1-3,0-4.4c-.3-3.8-3.6-6.9-7.4-7.1H11.3c-3.9.2-7,3.3-7.4,7.1.3,6.5-.5,13.5,0,20s3.4,7,7.3,7.3,10.8-.3,16.1,0c2.4.4,2.2,3.7-.2,3.9-5.3-.3-10.9.3-16.1,0-4.9-.3-9.3-3.8-10.6-8.6s-.3-1.4-.4-2.1V10.7C.6,4.9,5.3.4,11.1,0h27.9c5.1.4,9.4,3.9,10.6,8.9l.3,1.8Z"/>
  <path class="st0" d="M50,28.7c0,.2,0,.7,0,1-.2,1.3-1.1,2.4-2.2,3,0,.2.1.8.2,1.1.2,2.8-2.5,4.7-5.1,3.9-1,1.3-2,2.3-3.8,2.2s-2.5-1.1-3.3-2.2c-3.2,1-5.9-1.8-4.9-4.9-1.3-.9-2.3-1.9-2.2-3.6s1-2.6,2.2-3.5c-1-3.1,1.8-5.9,4.9-4.9.9-1.2,1.9-2.2,3.5-2.2s2.7,1,3.6,2.2c2.6-.8,5.3,1.1,5.1,3.9s-.2.9-.2,1.1c1.1.7,2,1.7,2.2,3ZM43.9,24.5c-1.3.2-2.5.2-3.6-.7l-1.2-1.3c-1,1.7-2.7,2.4-4.6,1.9.2,1.3.2,2.5-.7,3.6l-1.3,1.2c1.7,1,2.4,2.7,2,4.6,1.3-.2,2.5-.2,3.6.7l1.2,1.3c1-1.7,2.7-2.4,4.6-1.9-.2-1.3-.2-2.5.7-3.6l1.3-1.2c-1.7-1-2.4-2.7-2-4.6Z"/>
  <path class="st0" d="M35.1,49.9c-1.1-.1-2.2-1.1-2.6-2.1s-.3-4.1-.2-5.1c.2-1.9,2.8-2.4,3.6-.7s.3.6.3.6v2.7c1-.6,1.6-2,3-2s1.9,1.3,2.9,2v-2.7c0-.3.4-.9.6-1.1,1.2-1.1,3.1-.3,3.3,1.2s0,3.2,0,4.2c-.1,1.4-1.4,2.9-2.8,3.1h-1.1c-1.3-.3-1.9-1.2-2.9-1.9-1,.6-1.7,1.7-3,1.9-.3,0-.7,0-1.1,0Z"/>
  <path class="st0" d="M11.4,10.8h27c2.4.2,2.4,3.6,0,3.9H11.6c-2.3-.2-2.4-3.5-.2-3.9Z"/>
  <path class="st0" d="M11.4,18.6h14.6c2.3.3,2.3,3.6,0,3.9h-14.4c-2.2-.3-2.3-3.5,0-3.9Z"/>
  <path class="st0" d="M11.4,26.4c2.9.2,6.7-.4,9.5,0s2.2,3.6,0,3.9-6.5-.2-9.4,0c-2.2-.4-2.2-3.5,0-3.8Z"/>
</svg>